# xmcd
#
# Track frame offsets: 
#        150
#        12260
#        20148
#        32295
#        49895
#        60363
#        71270
#        79098
#        87185
#        95918
#
# Disc length: 1435 seconds
#
# Revision: 0
# Processed by: cddbd v1.5.2PL0 Copyright (c) Steve Scherf et al.
# Submitted via: ExactAudioCopy v0.99pb3
#
DISCID=7405990a
DTITLE=Jimmy Henley - The Best of Jimmy Henley Banjo Instrumentals
DYEAR=1994
DGENRE=
TTITLE0=Shuckin' the Corn
TTITLE1=Little Rock Getaway
TTITLE2=Huckleberry Hornpipe
TTITLE3=Reuben
TTITLE4=Duelin' Banjos
TTITLE5=Bird's Eye
TTITLE6=Song for Susan
TTITLE7=The Kingfisher
TTITLE8=Sledd Ride
TTITLE9=Rawhide
EXTD=
EXTT0=
EXTT1=
EXTT2=
EXTT3=
EXTT4=
EXTT5=
EXTT6=
EXTT7=
EXTT8=
EXTT9=
PLAYORDER=
